# xmcd
#
# Track frame offsets: 
#        150
#        17165
#        35067
#        53335
#        72415
#        90960
#        113387
#        127275
#        151302
#        169272
#        181205
#
# Disc length: 2679 seconds
#
# Revision: 1
# Processed by: cddbd v1.5.2PL0 Copyright (c) Steve Scherf et al.
# Submitted via: ExactAudioCopy v1.0b3
#
DISCID=870a750b
DTITLE=押尾コータロー - Dramatic
DYEAR=2003
DGENRE=New Age
TTITLE0=Splash
TTITLE1=太陽のダンス
TTITLE2=風の詩
TTITLE3=Happy Island
TTITLE4=Canon
TTITLE5=Bolero
TTITLE6=そらはキマグレ
TTITLE7=約束
TTITLE8=Chaser
TTITLE9=プロローグ
TTITLE10=Again...
EXTD=YEAR: 2003
EXTT0=
EXTT1=
EXTT2=
EXTT3=
EXTT4=
EXTT5=
EXTT6=
EXTT7=
EXTT8=
EXTT9=
EXTT10=
PLAYORDER=
